<svg xmlns="http://www.w3.org/2000/svg" width="159" height="18" fill="none" viewBox="0 0 159 18">
  <g clip-path="url(#a)">
    <path fill="#fff" d="M147.151.295a30.829 30.829 0 0 1 2.211.098c.426.033.786.074 1.081.123l-.246 1.992h-2.014c-.688 0-1.171.123-1.449.369-.279.246-.418.73-.418 1.45V17.68h-2.923V3.934c.016-.737.155-1.377.417-1.918a2.762 2.762 0 0 1 1.204-1.278c.557-.295 1.269-.443 2.137-.443ZM155.602 0a42.192 42.192 0 0 1 2.481.098 8.17 8.17 0 0 1 1.229.123l-.271 1.992h-2.407c-.688 0-1.171.14-1.45.418-.262.279-.393.746-.393 1.402V17.68h-2.948V3.664c0-.77.123-1.426.369-1.967a2.653 2.653 0 0 1 1.179-1.254c.557-.295 1.294-.443 2.211-.443Zm2.776 5.607v2.065h-17.123V5.73l2.236-.123h14.887Zm-24.746-.296c.966 0 1.777.132 2.432.394a2.8 2.8 0 0 1 1.523 1.279c.344.606.516 1.442.516 2.508v8.188h-2.359l-.417-2.606-.221-.345V9.467c0-.64-.148-1.098-.443-1.377-.294-.295-.859-.443-1.695-.443-.622 0-1.408.025-2.358.074a84.81 84.81 0 0 0-2.825.197l-.27-2.041c.573-.115 1.22-.213 1.94-.295.721-.082 1.45-.148 2.187-.197.737-.049 1.4-.074 1.99-.074Zm3.193 4.943-.024 1.844h-5.528c-.491.017-.843.148-1.056.394-.213.246-.319.582-.319 1.008v.664c0 .492.131.869.393 1.131.262.246.671.369 1.228.369.442 0 .934-.09 1.474-.27a6.88 6.88 0 0 0 1.597-.787 6.962 6.962 0 0 0 1.449-1.23v1.55a8.045 8.045 0 0 1-.712.884 7.988 7.988 0 0 1-1.155.984 6.005 6.005 0 0 1-1.548.811c-.573.214-1.211.32-1.916.32-.72 0-1.367-.123-1.94-.369a3.164 3.164 0 0 1-1.352-1.13c-.327-.51-.491-1.132-.491-1.87V13.28c0-.951.311-1.689.934-2.213.638-.542 1.506-.812 2.604-.812h6.362Zm-15.026-8.09V14.04c0 .508.106.869.319 1.082.23.213.615.32 1.155.32h1.67l.32 2.09a8.704 8.704 0 0 1-1.007.221 9.549 9.549 0 0 1-1.155.123c-.377.033-.696.05-.958.05-1.048 0-1.867-.28-2.457-.837-.573-.574-.86-1.393-.86-2.459V2.164h2.973Zm3.587 3.442v2.066h-8.697V5.729l2.359-.123h6.338ZM109.303.393a38.36 38.36 0 0 1 2.629.148c.933.082 1.842.238 2.726.467l-.196 2.09a558.58 558.58 0 0 0-2.457-.049A74.322 74.322 0 0 0 109.352 3c-.524 0-.974.016-1.351.05-.36.032-.655.114-.884.245a1.2 1.2 0 0 0-.516.615c-.099.262-.148.631-.148 1.106 0 .738.148 1.263.443 1.574.311.312.81.558 1.498.738l3.341.983c1.343.41 2.268 1.009 2.776 1.796.508.77.762 1.803.762 3.098 0 .967-.115 1.762-.344 2.385-.23.623-.582 1.107-1.057 1.45-.475.345-1.097.591-1.867.739-.769.147-1.695.221-2.776.221-.557 0-1.326-.033-2.309-.098-.966-.066-2.072-.23-3.316-.492l.196-2.213c.966.033 1.777.065 2.432.098.655.016 1.22.025 1.695.025h1.327c.753 0 1.343-.05 1.769-.148.425-.098.72-.303.884-.615.18-.311.27-.762.27-1.352 0-.508-.065-.902-.196-1.18a1.345 1.345 0 0 0-.59-.689c-.278-.164-.639-.303-1.081-.418l-3.464-1.057c-1.277-.394-2.178-.976-2.702-1.746-.508-.77-.761-1.804-.761-3.099 0-.967.114-1.754.343-2.36.23-.623.582-1.09 1.057-1.402.475-.328 1.081-.55 1.818-.664.753-.131 1.654-.197 2.702-.197Z"/>
    <path fill="#6366F1" d="M85.842.443c.524 0 1.13.016 1.818.049.688.016 1.4.09 2.138.221l-.344 2.14a8.76 8.76 0 0 0-.713-.025 15.46 15.46 0 0 0-.933-.025 22.194 22.194 0 0 0-1.057-.024h-1.007c-.835 0-1.498.065-1.99.196-.475.115-.819.353-1.032.714-.196.36-.294.91-.294 1.647 0 .672.082 1.197.245 1.574.164.36.442.615.835.762.41.131.95.197 1.622.197h9.679l-.025 2.09h-9.802c-.736 0-1.326.09-1.768.27a1.572 1.572 0 0 0-.91.861c-.18.394-.27.967-.27 1.722 0 .688.074 1.229.222 1.622a1.5 1.5 0 0 0 .835.812c.393.147.925.221 1.597.221 1.015-.016 1.924-.164 2.727-.442a5.85 5.85 0 0 0 2.088-1.304l.344 1.722c-.508.623-1.04 1.123-1.597 1.5a5.528 5.528 0 0 1-1.892.762c-.704.164-1.531.246-2.481.246-1.195 0-2.17-.14-2.923-.418-.737-.295-1.278-.77-1.622-1.427-.344-.672-.516-1.581-.516-2.729 0-1.295.238-2.328.713-3.098.491-.787 1.36-1.238 2.604-1.353v-.098c-1.016-.098-1.744-.476-2.186-1.131-.426-.656-.64-1.599-.64-2.828 0-.984.124-1.77.37-2.36.245-.591.63-1.034 1.154-1.329.54-.295 1.22-.491 2.039-.59.819-.098 1.81-.147 2.972-.147Zm6.142 4.549v9.098c0 .508.106.869.32 1.082.212.213.556.32 1.031.32h1.646l.344 2.04a7.69 7.69 0 0 1-.958.222c-.36.066-.72.107-1.081.123a9.52 9.52 0 0 1-.885.05c-1.031 0-1.826-.263-2.382-.788-.557-.524-.836-1.254-.836-2.188V8.803l.295-3.811h2.506Z"/>
    <path fill="#fff" d="M62.914 5.311c.819 0 1.621.115 2.407.345a5.861 5.861 0 0 1 2.138 1.082l-.197 1.5a80.446 80.446 0 0 0-1.72-.468 6.778 6.778 0 0 0-1.695-.196c-.59 0-1.064.106-1.424.32-.344.196-.606.581-.787 1.155-.163.574-.245 1.41-.245 2.508 0 1.05.082 1.861.245 2.435.164.557.418.95.762 1.18.344.213.794.32 1.351.32.442 0 .835-.05 1.18-.148a5.514 5.514 0 0 0 1.056-.492c.36-.23.778-.516 1.253-.86l.245 1.672a7.686 7.686 0 0 1-2.063 1.647c-.803.443-1.736.664-2.8.664-1.54 0-2.638-.54-3.293-1.623-.655-1.098-.982-2.688-.982-4.77 0-1.59.163-2.836.491-3.738.344-.918.852-1.565 1.523-1.942.688-.394 1.54-.59 2.555-.59ZM69.89.467V17.68h-2.334l-.32-2.164-.319-.246V7.205l.148-.344a13.736 13.736 0 0 1-.123-1.427 45.012 45.012 0 0 1-.025-1.5V.467h2.973ZM51.95 5.311c2.243 0 3.365 1.107 3.365 3.32v9.05h-2.973V9.54c0-.656-.114-1.107-.344-1.353-.229-.245-.614-.368-1.154-.368-.606 0-1.229.139-1.867.418-.639.262-1.409.647-2.31 1.155l-.122-1.795c.884-.737 1.785-1.303 2.702-1.696.917-.394 1.818-.59 2.702-.59Zm-5.504.295.295 2.361.246.344v9.37h-2.973V5.605h2.432Zm-13.789 0v8.164c-.017.607.098 1.041.344 1.304.262.262.68.393 1.252.393.574 0 1.147-.123 1.72-.369s1.27-.615 2.088-1.106l.295 1.77c-.917.738-1.802 1.295-2.653 1.672A6.487 6.487 0 0 1 33.05 18c-2.244 0-3.366-1.107-3.366-3.32V5.606h2.973Zm8.082 0V17.68H38.38l-.32-2.336-.295-.344V5.606h2.973ZM20.3 5.311c1.474 0 2.645.205 3.513.615.884.41 1.515 1.082 1.891 2.017.393.934.59 2.172.59 3.713 0 1.54-.197 2.778-.59 3.713a3.738 3.738 0 0 1-1.891 2.016c-.868.41-2.04.615-3.513.615-1.441 0-2.604-.205-3.489-.615-.868-.426-1.498-1.098-1.891-2.016-.393-.935-.59-2.172-.59-3.713s.197-2.779.59-3.713c.393-.935 1.023-1.607 1.891-2.017.885-.41 2.048-.615 3.489-.615Zm0 2.263c-.72 0-1.294.123-1.72.369-.41.23-.704.639-.884 1.23-.18.59-.27 1.417-.27 2.483 0 1.065.09 1.893.27 2.483.18.59.475 1 .884 1.23.426.23 1 .344 1.72.344.737 0 1.318-.115 1.744-.344.426-.23.72-.64.884-1.23.18-.59.27-1.418.27-2.483 0-1.066-.09-1.894-.27-2.484-.163-.59-.458-1-.884-1.23-.426-.245-1.007-.368-1.744-.368ZM5.92.393C6.756.41 7.632.46 8.55.541c.934.082 1.843.238 2.727.467l-.197 2.09c-.704-.016-1.523-.032-2.456-.049A74.352 74.352 0 0 0 5.97 3c-.524 0-.975.016-1.352.05-.36.032-.655.114-.884.245-.23.131-.401.336-.516.615-.098.262-.147.631-.147 1.106 0 .738.147 1.263.442 1.574.311.312.81.558 1.498.738l3.341.983c1.343.41 2.269 1.009 2.777 1.796.507.77.761 1.803.761 3.098 0 .967-.115 1.762-.344 2.385-.23.623-.581 1.107-1.056 1.45-.475.345-1.098.591-1.867.739-.77.147-1.695.221-2.776.221-.557 0-1.327-.033-2.31-.098-.966-.066-2.071-.23-3.316-.492l.197-2.213c.966.033 1.777.065 2.432.098.655.016 1.22.025 1.695.025H5.87c.754 0 1.343-.05 1.77-.148.425-.098.72-.303.883-.615.18-.311.27-.762.27-1.352 0-.508-.065-.902-.196-1.18a1.346 1.346 0 0 0-.59-.689c-.278-.164-.638-.303-1.08-.418L3.464 9.861C2.186 9.467 1.286 8.885.762 8.115.254 7.345 0 6.31 0 5.016c0-.967.115-1.754.344-2.36.23-.623.581-1.09 1.056-1.402C1.875.926 2.481.704 3.218.59 3.972.46 4.872.393 5.92.393Z"/>
  </g>
  <defs>
    <clipPath id="a">
      <path fill="#fff" d="M0 0h159v18H0z"/>
    </clipPath>
  </defs>
</svg>
